HIERARCHY
ROOT Hips
{
	OFFSET -3.958830 18.904000 13.208200
	CHANNELS 6 Xposition Yposition Zposition Zrotation Yrotation Xrotation 
	JOINT LHipJoint
	{
		OFFSET 0.000000 0.000000 0.000000
		CHANNELS 3 Zrotation Yrotation Xrotation
		JOINT LeftUpLeg
		{
			OFFSET 1.800000 -1.400000 0.085000
			CHANNELS 3 Zrotation Yrotation Xrotation
			JOINT LeftLeg
			{
				OFFSET 2.215000 -6.000000 0.000000
				CHANNELS 3 Zrotation Yrotation Xrotation
				JOINT LeftFoot
				{
					OFFSET 2.500000 -6.900000 0.000000
					CHANNELS 3 Zrotation Yrotation Xrotation
					JOINT LeftToeBase
					{
						OFFSET 0.200000 -0.500000 1.950000
						CHANNELS 3 Zrotation Yrotation Xrotation
						End Site
						{
							OFFSET 0.000000 0.000000 0.000000
						}
					}
				}
			}
		}
	}
	JOINT RHipJoint
	{
		OFFSET 0.000000 0.000000 0.000000
		CHANNELS 3 Zrotation Yrotation Xrotation
		JOINT RightUpLeg
		{
			OFFSET -1.800000 -1.400000 0.085000
			CHANNELS 3 Zrotation Yrotation Xrotation
			JOINT RightLeg
			{
				OFFSET -2.215000 -6.000000 0.000000
				CHANNELS 3 Zrotation Yrotation Xrotation
				JOINT RightFoot
				{
					OFFSET -2.500000 -6.900000 0.000000
					CHANNELS 3 Zrotation Yrotation Xrotation
					JOINT RightToeBase
					{
						OFFSET -0.200000 -0.500000 1.950000
						CHANNELS 3 Zrotation Yrotation Xrotation
						End Site
						{
							OFFSET 0.000000 0.000000 0.000000
						}
					}
				}
			}
		}
	}
	JOINT LowerBack
	{
		OFFSET 0.000000 0.000000 0.000000
		CHANNELS 3 Zrotation Yrotation Xrotation
		JOINT Spine
		{
			OFFSET -0.087000 1.940000 -0.288900
			CHANNELS 3 Zrotation Yrotation Xrotation
			JOINT Spine1
			{
				OFFSET 0.000000 1.950000 0.060000
				CHANNELS 3 Zrotation Yrotation Xrotation
				JOINT Neck
				{
					OFFSET 0.000000 0.000000 0.000000
					CHANNELS 3 Zrotation Yrotation Xrotation
					JOINT Neck1
					{
						OFFSET 0.000000 1.600000 0.340000
						CHANNELS 3 Zrotation Yrotation Xrotation
						JOINT Head
						{
							OFFSET 0.000000 1.667000 -0.240000
							CHANNELS 3 Zrotation Yrotation Xrotation
							End Site
							{
								OFFSET 0.000000 0.000000 0.000000
							}
						}
					}
				}
				JOINT LeftShoulder
				{
					OFFSET 0.000000 0.000000 0.000000
					CHANNELS 3 Zrotation Yrotation Xrotation
					JOINT LeftArm
					{
						OFFSET 2.700000 1.550000 -0.730000
						CHANNELS 3 Zrotation Yrotation Xrotation
						JOINT LeftForeArm
						{
							OFFSET 5.450000 0.000000 0.000000
							CHANNELS 3 Zrotation Yrotation Xrotation
							JOINT LeftHand
							{
								OFFSET 3.450000 0.000000 0.000000
								CHANNELS 3 Zrotation Yrotation Xrotation
								JOINT LeftHandIndex1
								{
									OFFSET 0.750000 0.000000 0.000000
									CHANNELS 3 Zrotation Yrotation Xrotation
									End Site
									{
										OFFSET 0.000000 0.000000 0.000000
									}
								}
							}
						}
					}
				}
				JOINT RightShoulder
				{
					OFFSET 0.000000 0.000000 0.000000
					CHANNELS 3 Zrotation Yrotation Xrotation
					JOINT RightArm
					{
						OFFSET -2.700000 1.550000 -0.730000
						CHANNELS 3 Zrotation Yrotation Xrotation
						JOINT RightForeArm
						{
							OFFSET -5.450000 0.000000 0.000000
							CHANNELS 3 Zrotation Yrotation Xrotation
							JOINT RightHand
							{
								OFFSET -3.450000 0.000000 0.000000
								CHANNELS 3 Zrotation Yrotation Xrotation
								JOINT RightHandIndex1
								{
									OFFSET -0.750000 0.000000 0.000000
									CHANNELS 3 Zrotation Yrotation Xrotation
									End Site
									{
										OFFSET 0.000000 0.000000 0.000000
									}
								}
							}
						}
					}
				}
			}
		}
	}
}
MOTION
Frames: 13
Frame Time: 0.016667
-1.082750 17.455650 -4.462420 -3.932944 22.417808 -11.277625 -14.114939 12.202249 1.875429 9.699202 -0.161680 -12.437538 2.041230 3.233431 10.725449 -0.479940 2.685207 3.808759 0.564650 0.579070 -0.038240 19.250791 -12.976530 2.990219 -1.593524 -0.975178 -3.682092 1.045715 -4.584107 16.019463 -0.419971 -4.391415 2.998260 0.384090 0.366010 -0.047390 -7.252566 2.999309 -8.323621 29.118768 0.537339 12.811266 -15.665810 4.072170 35.182604 6.858136 -6.255208 -24.713376 -13.975272 -5.087101 44.512366 12.427970 -17.886540 -10.258310 -13.179186 -43.371332 13.433790 -18.808429 -39.946959 -8.994345 37.258838 -9.574261 -9.158953 -3.613036 3.504530 0.061660 0.006490 -0.196480 0.381690 2.747888 50.202254 14.148908 9.261549 30.932461 -12.224028 -31.282555 8.971483 -7.156986 2.797038 -2.044987 -0.000750 0.356950 -0.137380 0.210040 
-1.095730 17.445090 -4.470960 -3.952103 23.488637 -11.372549 -14.142140 12.224778 1.873915 9.394257 -0.268137 -13.118935 2.372266 3.170902 11.398392 -0.518526 2.672620 3.802027 0.574610 0.587380 -0.031280 19.224311 -12.966480 2.981903 -1.721236 -0.975629 -3.795938 1.434436 -4.699371 16.165916 -0.418063 -4.409709 2.984894 0.401050 0.367160 -0.044700 -7.257736 2.996405 -8.296191 28.891924 0.565233 12.698921 -15.133327 3.880909 35.036588 6.478295 -5.891703 -24.000404 -13.205561 -5.602560 44.441570 12.432740 -18.026220 -10.830000 -12.826226 -43.566424 12.969402 -19.940306 -41.289933 -9.757515 41.412729 -11.299937 -11.065386 -3.600302 3.481467 0.070370 0.009950 -0.198350 0.377950 3.060561 49.423363 14.818360 10.588034 32.076147 -14.715824 -37.094509 9.387013 -9.229252 2.705407 -2.108036 -0.009970 0.366600 -0.129870 0.201220 
-1.129670 17.424010 -4.489370 -3.653401 25.681737 -11.397042 -14.249039 12.385754 1.952190 8.638916 -0.499269 -14.268299 2.867854 3.067232 12.334801 -0.539281 2.638130 3.792573 0.572650 0.586690 -0.021070 19.098417 -12.861263 2.949024 -2.284037 -0.902584 -4.175585 2.466347 -5.012477 16.802891 -0.405855 -4.423870 2.971732 0.404420 0.354700 -0.043880 -7.100368 2.687280 -8.207000 27.355850 0.361045 13.008997 -14.030389 3.546340 34.541536 5.737088 -4.898894 -22.999711 -11.480260 -6.508103 44.008103 12.691040 -18.135480 -11.576130 -14.064213 -44.407110 12.638596 -21.173218 -42.119784 -11.985866 50.376095 -16.624530 -15.984598 -3.615436 3.367169 0.083300 0.006000 -0.188760 0.365050 5.205436 48.725762 16.654256 11.951276 33.141088 -21.262867 -47.837312 15.486589 -14.774933 2.759028 -2.133991 -0.015450 0.368480 -0.123490 0.188860 
-1.169910 17.397000 -4.498360 -3.097221 27.208615 -11.307834 -14.254410 12.312503 1.937164 7.711705 -0.752795 -15.084480 3.356181 2.949178 13.623172 -0.608405 2.620529 3.798156 0.631910 0.682980 -0.014960 19.100423 -12.939981 2.916103 -3.282537 -0.871218 -4.586350 3.583552 -5.318981 17.077893 -0.405507 -4.523896 2.938047 0.493790 0.386080 -0.059020 -7.236445 2.957476 -8.264528 26.472459 0.945555 12.879192 -12.845436 3.489424 34.921072 5.400422 -4.559139 -21.461404 -9.912739 -7.518047 42.687089 12.883620 -18.270420 -13.235900 -13.406696 -46.054598 12.440049 -22.981099 -44.037037 -13.239844 60.873912 -19.765901 -21.440272 -3.631486 3.259947 0.056380 0.028350 -0.207830 0.393190 5.511564 49.410135 15.754491 13.736444 33.359066 -28.842979 -59.632236 20.793173 -20.559967 2.803110 -2.005322 -0.027950 0.425370 -0.135130 0.200990 
-1.204950 17.375590 -4.495240 -2.631378 27.774789 -11.533068 -14.246958 12.258894 1.920065 7.087533 -0.905156 -15.174011 3.636593 2.884109 14.546251 -0.694800 2.673939 3.772799 0.688040 0.754860 0.003870 19.110747 -13.008314 2.910165 -4.040602 -0.917573 -4.418165 4.283740 -5.524247 17.028710 -0.421003 -4.634029 2.883817 0.577220 0.408490 -0.055240 -7.334582 3.151781 -8.344362 25.641214 1.655331 12.986343 -11.302360 3.630348 35.774859 5.083870 -4.141472 -20.555155 -8.418332 -8.020780 41.973856 12.814590 -17.920460 -14.476830 -13.046893 -48.608938 12.151834 -23.200645 -45.445842 -14.464014 71.017061 -20.380976 -25.760027 -3.619366 3.117559 0.055180 0.050450 -0.220460 0.405780 6.026798 51.176328 14.951701 13.876553 32.144108 -36.044020 -69.659185 27.517835 -25.847388 2.884494 -1.768839 -0.049440 0.467640 -0.130820 0.192710 
-1.244390 17.364750 -4.489260 -1.872969 27.743780 -11.982351 -14.282831 12.302406 1.922859 6.367729 -1.011753 -14.873835 4.009669 2.828804 15.577426 -0.756850 2.764615 3.722462 0.752150 0.821610 0.030260 19.070696 -13.015299 2.895620 -4.877069 -1.016613 -3.799143 4.606615 -5.637362 16.889585 -0.445541 -4.732588 2.824271 0.649730 0.413150 -0.039500 -7.248508 3.124724 -8.321479 24.125239 2.198139 13.503952 -10.030480 4.108645 36.558636 4.780612 -3.567007 -19.430058 -7.103099 -8.272765 41.690010 13.410910 -17.630030 -15.745100 -12.805721 -51.187899 11.102360 -22.659266 -46.150239 -14.925917 80.594914 -19.443338 -28.844656 -3.553714 2.970895 0.069140 0.053270 -0.219080 0.417560 6.365641 53.113216 14.148899 13.283361 30.361296 -40.426289 -77.743545 33.429270 -30.464252 3.012062 -1.593776 -0.059250 0.486180 -0.131120 0.183240 
-1.276440 17.357020 -4.488940 -1.327381 27.596023 -12.718455 -14.345137 12.368354 1.911515 5.826519 -1.076247 -14.566280 4.380198 2.818914 16.716321 -0.760331 2.868338 3.671590 0.769290 0.840320 0.042440 19.014363 -12.967066 2.874046 -5.597322 -1.170974 -2.830765 5.016745 -5.808346 16.690684 -0.470408 -4.829378 2.783597 0.669560 0.413090 -0.038730 -7.070348 2.995531 -8.208723 23.041257 2.217456 14.243835 -9.485984 4.451769 37.122457 4.577424 -3.219079 -18.485470 -6.608628 -8.361797 41.436526 14.282050 -17.525430 -16.764150 -12.388493 -53.234751 10.282362 -21.594543 -45.806383 -15.486198 88.985094 -18.683313 -31.556252 -3.529980 2.830272 0.081470 0.044660 -0.212940 0.412500 6.194045 54.880099 13.280850 12.139075 27.781666 -42.925159 -84.571485 39.821226 -35.473979 3.242749 -1.468019 -0.063860 0.500450 -0.125290 0.179810 
-1.291700 17.345950 -4.488780 -1.448321 27.063805 -13.577690 -14.350948 12.317775 1.816287 5.642155 -1.041073 -14.141097 4.961705 2.715591 17.445023 -0.726643 2.884509 3.661712 0.814320 0.924180 0.041230 19.046802 -12.983313 2.824243 -5.782192 -1.300964 -2.202360 5.162302 -5.969657 17.123194 -0.512515 -4.956061 2.754921 0.709410 0.406180 -0.045410 -7.061367 3.179715 -8.025605 23.427475 2.098847 14.383259 -9.452270 4.520871 37.382992 4.388205 -3.069547 -17.137477 -6.430592 -8.481279 40.904351 14.695440 -17.447940 -17.411530 -11.145815 -54.104816 9.348866 -20.752482 -45.560676 -14.741736 95.751198 -17.797763 -33.893254 -3.520424 2.799134 0.059070 0.039860 -0.198130 0.446050 5.359803 55.559875 11.953717 11.816838 26.362828 -41.348672 -91.019402 42.827495 -40.335826 3.189941 -1.312705 -0.038050 0.504690 -0.162790 0.204610 
-1.305900 17.328610 -4.484540 -1.858653 26.665621 -14.492708 -14.339162 12.240222 1.711493 5.773726 -1.031185 -14.058160 5.501822 2.649738 18.486380 -0.694008 2.947156 3.647309 0.835000 0.967710 0.042610 19.093909 -13.029485 2.796414 -5.612414 -1.406320 -1.729691 5.228668 -6.107785 17.626446 -0.544087 -5.071655 2.734565 0.731090 0.412140 -0.055260 -7.110283 3.462860 -7.904122 24.271214 1.955926 14.514540 -9.828022 4.643030 37.786239 4.544448 -2.913846 -16.334793 -6.082146 -8.761478 40.134428 14.503900 -17.446410 -17.372810 -10.798500 -55.302673 8.863481 -18.900253 -44.489268 -14.277927 102.353254 -17.410202 -36.359406 -3.566314 2.761723 0.034060 0.047610 -0.197330 0.472140 4.887509 56.581870 10.776324 11.162326 24.286505 -39.648153 -98.278903 44.660630 -45.401503 3.094157 -1.102942 -0.028900 0.514320 -0.192200 0.220840 
-1.319530 17.307590 -4.479900 -2.053487 26.341244 -15.681797 -14.345927 12.209777 1.647105 5.736784 -1.048215 -13.920223 6.031841 2.594221 19.709467 -0.656238 3.039781 3.601489 0.826690 0.951490 0.044230 19.105822 -13.062622 2.782973 -5.749113 -1.546538 -0.790777 5.430147 -6.378959 18.210587 -0.585810 -5.243316 2.681961 0.706480 0.386660 -0.041710 -7.089328 3.640222 -7.831276 24.862098 1.828206 15.382975 -10.117793 4.888043 37.891392 4.408487 -2.469584 -15.840063 -5.374563 -9.153302 39.722534 14.265460 -17.391020 -16.886020 -9.859238 -55.963518 8.145721 -15.497508 -42.463109 -14.118985 106.270471 -18.388706 -38.553820 -3.664245 2.791929 0.036520 0.044620 -0.189270 0.467660 4.262702 56.982460 10.251242 10.349336 22.420488 -37.728006 -104.530213 44.594026 -49.749608 2.983301 -0.942432 -0.014180 0.469390 -0.200290 0.213220 
-1.332110 17.291980 -4.472420 -2.819776 25.714660 -17.108549 -14.311669 12.079851 1.521586 6.178906 -1.026098 -13.942588 6.468481 2.581009 20.990122 -0.607667 3.152600 3.567397 0.799630 0.914690 0.035460 19.177355 -13.155266 2.787745 -5.340626 -1.754878 0.295169 5.412727 -6.594708 18.798924 -0.632800 -5.421338 2.638730 0.671690 0.384040 -0.043870 -7.188853 4.100519 -7.780329 26.610821 1.547462 16.094665 -11.103898 5.115190 38.271344 4.729182 -2.309362 -15.650494 -4.984140 -9.461845 39.113313 14.286490 -17.540420 -16.268890 -8.908642 -55.650408 8.090040 -11.758713 -40.096588 -14.203358 110.027765 -19.823273 -41.738417 -3.748870 2.828676 0.033610 0.044850 -0.193130 0.466400 2.981359 56.779555 9.608223 8.828656 20.059088 -35.915071 -109.762327 43.784437 -53.674407 2.923346 -0.855108 -0.013290 0.449400 -0.205120 0.212570 
-1.344140 17.277470 -4.457040 -3.592769 24.841230 -18.531298 -14.276913 11.965763 1.384479 6.832624 -0.965371 -14.026869 7.251161 2.501927 22.512690 -0.558421 3.317919 3.502160 0.763670 0.854720 0.029900 19.246158 -13.257551 2.805814 -4.654732 -1.967957 1.438983 5.062490 -6.728263 19.550962 -0.668176 -5.597249 2.584821 0.628010 0.376390 -0.033390 -7.266315 4.557682 -7.737876 28.438765 1.243603 16.763388 -12.011635 5.409094 38.650889 5.032632 -2.399878 -15.554349 -4.938387 -9.863887 38.282233 14.011960 -17.882670 -15.425630 -6.998521 -53.957576 8.037994 -8.726985 -38.079537 -14.192072 113.315530 -20.720093 -45.365243 -3.788588 2.916297 0.024850 0.049740 -0.206240 0.446130 0.816809 55.671156 9.496297 7.504440 17.950849 -33.918865 -114.875447 42.805223 -58.885653 2.875239 -0.816267 -0.008520 0.409580 -0.195110 0.204660 
-1.347140 17.267070 -4.439670 -4.029398 23.618374 -19.748493 -14.238471 11.880040 1.255427 7.501123 -0.749024 -13.656911 7.717865 2.548958 23.563395 -0.531564 3.493030 3.445680 0.700540 0.766600 0.010420 19.307051 -13.375549 2.813140 -4.210080 -2.028076 2.383733 4.459609 -6.814389 20.715513 -0.690262 -5.761183 2.540683 0.575450 0.391810 -0.037070 -7.314725 4.976137 -7.692187 30.048636 0.933828 17.540459 -12.991860 5.755068 38.620578 5.268378 -2.745740 -15.211069 -5.234833 -9.912438 37.388437 13.826890 -17.889990 -14.864750 -4.815838 -51.094168 8.331094 -6.274305 -35.844524 -13.865450 116.804500 -21.795222 -50.440545 -3.804743 2.969548 0.031730 0.061100 -0.228900 0.414900 -1.520125 53.757350 9.154497 6.632229 16.750558 -31.910463 -117.546604 43.977916 -63.809422 2.847153 -0.695725 -0.030850 0.405210 -0.159180 0.189380 
